#Comment line ignore any data following # character 
#Hierarchical Translation and Rotation (.htr) file 
[Header]	
#Header keywords are followed by a single value 
FileType HTR		#Single word string
DataType HTRS		#Translation followed by rotation and scale data
FileVersion 1		#integer
NumSegments 64		#integer
NumFrames 2		#integer
DataFrameRate 30		#integer, data frame rate in this file
EulerRotationOrder ZYX
CalibrationUnits mm
RotationUnits Degrees
GlobalAxisofGravity Y
BoneLengthAxis Y
ScaleFactor 1.00
[SegmentNames&Hierarchy]
#CHILD	PARENT
Pinger_Root GLOBAL
Pelvis Pinger_Root
L_Hip Pelvis
R_Hip Pelvis
Rear_Leg01 Pelvis
Spine1 Pelvis
L_Leg01 L_Hip
L_Leg02 L_Leg01
L_Leg03 L_Leg02
L_Foot L_Leg03
L_Toe1_01 L_Foot
L_Toe2_01 L_Foot
L_Toe3_01 L_Foot
planeAlignerLeft L_Foot
L_Toe1_02 L_Toe1_01
L_Toe1_03 L_Toe1_02
L_Toe2_02 L_Toe2_01
L_Toe2_03 L_Toe2_02
L_Toe3_02 L_Toe3_01
L_Toe3_03 L_Toe3_02
planeLockWeightLeft planeAlignerLeft
R_Leg01 R_Hip
R_Leg02 R_Leg01
R_Leg03 R_Leg02
R_Foot R_Leg03
planeAlignerRight R_Foot
R_Toe1_01 R_Foot
R_Toe2_01 R_Foot
R_Toe3_01 R_Foot
planeLockWeightRight planeAlignerRight
R_Toe1_02 R_Toe1_01
R_Toe1_03 R_Toe1_02
R_Toe2_02 R_Toe2_01
R_Toe2_03 R_Toe2_02
R_Toe3_02 R_Toe3_01
R_Toe3_03 R_Toe3_02
Rear_Leg02 Rear_Leg01
Rear_Leg03 Rear_Leg02
Rear_Leg04 Rear_Leg03
Rear_Foot Rear_Leg04
planeAlignerCenter Rear_Foot
Rear_Toe1_01 Rear_Foot
Rear_Toe2_01 Rear_Foot
Rear_Toe3_01 Rear_Foot
planeLockWeightCenter planeAlignerCenter
Rear_Toe1_02 Rear_Toe1_01
Rear_Toe1_03 Rear_Toe1_02
Rear_Toe2_02 Rear_Toe2_01
Rear_Toe2_03 Rear_Toe2_02
Rear_Toe3_02 Rear_Toe3_01
Rear_Toe3_03 Rear_Toe3_02
Back_Bone Spine1
Head Spine1
Motor_Bone Back_Bone
Ping_Mechanism Back_Bone
BN_LookIK Head
bottomMouth Head
L_Mouth01 Head
L_mouthFront Head
mouthGun Head
R_Mouth01 Head
R_mouthFront Head
TopMouth Head
weapon_bone Head
[BasePosition]
#SegmentName Tx, Ty, Tz, Rx, Ry, Rz, BoneLength
Pinger_Root 0.000000 0.000000 0.000000 -90.000000 0.000000 0.000000 10.000000 
Pelvis 0.000000 0.000000 0.000000 0.000000 0.000000 0.000000 10.000000 
L_Hip 0.000000 0.000000 0.000000 0.000000 0.000000 0.000000 10.000000 
R_Hip 0.000000 0.000000 0.000000 0.000000 0.000000 0.000000 10.000000 
Rear_Leg01 0.000000 0.000000 0.000000 0.000000 0.000000 0.000000 10.000000 
Spine1 0.000000 0.000000 0.000000 0.000000 0.000000 0.000000 10.000000 
L_Leg01 0.000000 0.000000 0.000000 0.000000 0.000000 0.000000 10.000000 
L_Leg02 0.000000 0.000000 0.000000 0.000000 0.000000 0.000000 10.000000 
L_Leg03 0.000000 0.000000 0.000000 0.000000 0.000000 0.000000 10.000000 
L_Foot 0.000000 0.000000 0.000000 0.000000 0.000000 0.000000 10.000000 
L_Toe1_01 0.000000 0.000000 0.000000 0.000000 0.000000 0.000000 10.000000 
L_Toe2_01 0.000000 0.000000 0.000000 0.000000 0.000000 0.000000 10.000000 
L_Toe3_01 0.000000 0.000000 0.000000 0.000000 0.000000 0.000000 10.000000 
planeAlignerLeft 0.000000 0.000000 0.000000 0.000000 0.000000 0.000000 10.000000 
L_Toe1_02 0.000000 0.000000 0.000000 0.000000 0.000000 0.000000 10.000000 
L_Toe1_03 0.000000 0.000000 0.000000 0.000000 0.000000 0.000000 10.000000 
L_Toe2_02 0.000000 0.000000 0.000000 0.000000 0.000000 0.000000 10.000000 
L_Toe2_03 0.000000 0.000000 0.000000 0.000000 0.000000 0.000000 10.000000 
L_Toe3_02 0.000000 0.000000 0.000000 0.000000 0.000000 0.000000 10.000000 
L_Toe3_03 0.000000 0.000000 0.000000 0.000000 0.000000 0.000000 10.000000 
planeLockWeightLeft 0.000000 0.000000 0.000000 0.000000 0.000000 0.000000 10.000000 
R_Leg01 0.000000 0.000000 0.000000 0.000000 0.000000 0.000000 10.000000 
R_Leg02 0.000000 0.000000 0.000000 0.000000 0.000000 0.000000 10.000000 
R_Leg03 0.000000 0.000000 0.000000 0.000000 0.000000 0.000000 10.000000 
R_Foot 0.000000 0.000000 0.000000 0.000000 0.000000 0.000000 10.000000 
planeAlignerRight 0.000000 0.000000 0.000000 0.000000 0.000000 0.000000 10.000000 
R_Toe1_01 0.000000 0.000000 0.000000 0.000000 0.000000 0.000000 10.000000 
R_Toe2_01 0.000000 0.000000 0.000000 0.000000 0.000000 0.000000 10.000000 
R_Toe3_01 0.000000 0.000000 0.000000 0.000000 0.000000 0.000000 10.000000 
planeLockWeightRight 0.000000 0.000000 0.000000 0.000000 0.000000 0.000000 10.000000 
R_Toe1_02 0.000000 0.000000 0.000000 0.000000 0.000000 0.000000 10.000000 
R_Toe1_03 0.000000 0.000000 0.000000 0.000000 0.000000 0.000000 10.000000 
R_Toe2_02 0.000000 0.000000 0.000000 0.000000 0.000000 0.000000 10.000000 
R_Toe2_03 0.000000 0.000000 0.000000 0.000000 0.000000 0.000000 10.000000 
R_Toe3_02 0.000000 0.000000 0.000000 0.000000 0.000000 0.000000 10.000000 
R_Toe3_03 0.000000 0.000000 0.000000 0.000000 0.000000 0.000000 10.000000 
Rear_Leg02 0.000000 0.000000 0.000000 0.000000 0.000000 0.000000 10.000000 
Rear_Leg03 0.000000 0.000000 0.000000 0.000000 0.000000 0.000000 10.000000 
Rear_Leg04 0.000000 0.000000 0.000000 0.000000 0.000000 0.000000 10.000000 
Rear_Foot 0.000000 0.000000 0.000000 0.000000 0.000000 0.000000 10.000000 
planeAlignerCenter 0.000000 0.000000 0.000000 0.000000 0.000000 0.000000 10.000000 
Rear_Toe1_01 0.000000 0.000000 0.000000 0.000000 0.000000 0.000000 10.000000 
Rear_Toe2_01 0.000000 0.000000 0.000000 0.000000 0.000000 0.000000 10.000000 
Rear_Toe3_01 0.000000 0.000000 0.000000 0.000000 0.000000 0.000000 10.000000 
planeLockWeightCenter 0.000000 0.000000 0.000000 0.000000 0.000000 0.000000 10.000000 
Rear_Toe1_02 0.000000 0.000000 0.000000 0.000000 0.000000 0.000000 10.000000 
Rear_Toe1_03 0.000000 0.000000 0.000000 0.000000 0.000000 0.000000 10.000000 
Rear_Toe2_02 0.000000 0.000000 0.000000 0.000000 0.000000 0.000000 10.000000 
Rear_Toe2_03 0.000000 0.000000 0.000000 0.000000 0.000000 0.000000 10.000000 
Rear_Toe3_02 0.000000 0.000000 0.000000 0.000000 0.000000 0.000000 10.000000 
Rear_Toe3_03 0.000000 0.000000 0.000000 0.000000 0.000000 0.000000 10.000000 
Back_Bone 0.000000 0.000000 0.000000 0.000000 0.000000 0.000000 10.000000 
Head 0.000000 0.000000 0.000000 0.000000 0.000000 0.000000 10.000000 
Motor_Bone 0.000000 0.000000 0.000000 0.000000 0.000000 0.000000 10.000000 
Ping_Mechanism 0.000000 0.000000 0.000000 0.000000 0.000000 0.000000 10.000000 
BN_LookIK 0.000000 0.000000 0.000000 0.000000 0.000000 0.000000 10.000000 
bottomMouth 0.000000 0.000000 0.000000 0.000000 0.000000 0.000000 10.000000 
L_Mouth01 0.000000 0.000000 0.000000 0.000000 0.000000 0.000000 10.000000 
L_mouthFront 0.000000 0.000000 0.000000 0.000000 0.000000 0.000000 10.000000 
mouthGun 0.000000 0.000000 0.000000 0.000000 0.000000 0.000000 10.000000 
R_Mouth01 0.000000 0.000000 0.000000 0.000000 0.000000 0.000000 10.000000 
R_mouthFront 0.000000 0.000000 0.000000 0.000000 0.000000 0.000000 10.000000 
TopMouth 0.000000 0.000000 0.000000 0.000000 0.000000 0.000000 10.000000 
weapon_bone 0.000000 0.000000 0.000000 0.000000 0.000000 0.000000 10.000000 
#Beginning of Data. Separated by tabs
#Fr	Tx	Ty	Tz	Rx	Ry	Rz	SF
[Pinger_Root]
27 0.000000 0.000000 0.000000 -0.000075 -0.000000 -0.000020 0.000000
28 0.000000 0.000000 0.000000 -0.000075 -0.000000 -0.000020 0.000000
[Pelvis]
27 98.700706 884.298462 4135.171875 -165.737686 -81.777008 158.978561 4229.819336
28 90.137642 936.279907 4185.813477 -158.829071 -82.474152 151.805939 4290.195801
[L_Hip]
27 5.766392 125.831482 872.656799 160.158691 -45.484905 122.312202 881.701050
28 5.766392 125.831482 872.656799 160.158691 -45.484905 122.312202 881.701050
[R_Hip]
27 5.765438 125.836372 -872.654907 77.388268 68.484108 157.229202 881.699829
28 5.765438 125.836372 -872.654907 70.185997 66.238510 151.004517 881.699829
[Rear_Leg01]
27 -192.298416 -925.602966 -0.001907 166.173431 -1.808729 -140.010513 945.367432
28 -192.298416 -925.602966 -0.001907 166.776810 -1.076829 -142.155518 945.367432
[Spine1]
27 290.604584 5.007505 0.000477 8.191965 4.726754 22.183563 290.647736
28 290.604584 5.007505 0.000477 8.117924 4.095301 20.661345 290.647736
[L_Leg01]
27 761.932007 -0.002384 -0.069261 35.883709 -13.530645 -2.922553 761.932068
28 761.932007 -0.002384 -0.069261 33.430920 -12.282671 -4.857377 761.932068
[L_Leg02]
27 1441.140503 -0.000954 -0.000715 5.367258 0.595262 -141.208664 1441.140503
28 1441.140503 -0.000954 -0.000715 5.258054 0.590194 -139.622299 1441.140503
[L_Leg03]
27 1686.963989 -0.000715 -0.000954 -0.070094 0.035976 129.036163 1686.963989
28 1686.963989 -0.000715 -0.000954 -0.070051 0.036060 129.173080 1686.963989
[L_Foot]
27 3041.570068 -30.715107 11.297464 -2.111845 17.066975 52.918411 3041.746094
28 3041.570068 -30.715107 11.297464 -1.043197 16.254797 53.819885 3041.746094
[L_Toe1_01]
27 -188.216690 -224.732346 -21.137953 93.753319 -8.631026 -173.523560 293.899567
28 -188.216690 -224.732346 -21.137953 93.845711 -7.715293 -173.355743 293.899567
[L_Toe2_01]
27 200.746536 -219.926590 148.838394 -91.086792 -26.975828 -50.647518 332.896027
28 200.746536 -219.926590 148.838394 -90.328857 -26.904133 -51.780884 332.896027
[L_Toe3_01]
27 188.832520 -219.859131 -191.078659 -99.902573 13.996514 -65.288078 347.140900
28 188.832520 -219.859131 -191.078659 -99.555527 13.504551 -66.189026 347.140900
[planeAlignerLeft]
27 0.812531 -811.448792 -0.314951 0.000000 -90.000000 -90.001900 811.449280
28 0.812531 -811.448792 -0.314951 0.000000 -90.000000 -90.001900 811.449280
[L_Toe1_02]
27 413.761139 0.000477 0.000000 0.001384 -25.928349 0.001384 413.761139
28 413.761139 0.000477 0.000000 0.001384 -25.962173 0.001384 413.761139
[L_Toe1_03]
27 464.317322 0.000358 -0.000089 0.003808 54.096470 0.003808 464.317322
28 464.317322 0.000358 -0.000089 0.003960 55.522598 0.003960 464.317322
[L_Toe2_02]
27 342.235809 -0.000477 0.000238 0.001187 -72.764023 0.001187 342.235809
28 342.235809 -0.000477 0.000238 0.001188 -72.120308 0.001188 342.235809
[L_Toe2_03]
27 420.210846 -0.000715 0.000000 0.037041 86.368591 0.037041 420.210846
28 420.210846 -0.000715 0.000000 0.025027 84.624184 0.025027 420.210846
[L_Toe3_02]
27 329.270111 0.000954 0.000000 -0.004348 -81.592766 0.007578 329.270111
28 329.270111 0.000954 0.000000 0.001177 -80.941132 0.001177 329.270111
[L_Toe3_03]
27 439.137451 -0.001907 0.000954 -179.997589 74.193802 -179.994049 439.137451
28 439.137451 -0.001907 0.000954 -179.996750 76.814735 -179.993225 439.137451
[planeLockWeightLeft]
27 -0.000954 0.000238 -0.000305 -0.011826 -0.004376 0.005620 0.001029
28 -0.000954 0.000238 -0.000305 -0.011826 -0.004376 0.005620 0.001029
[R_Leg01]
27 761.455627 -0.001907 -0.000358 98.758209 -1.022949 58.253803 761.455688
28 761.455627 -0.001907 -0.000358 101.595924 1.323429 55.943539 761.455688
[R_Leg02]
27 1441.140625 0.000000 -0.000238 -0.572031 0.136380 -76.616890 1441.140625
28 1441.140625 0.000000 -0.000238 -0.401008 0.138689 -74.345833 1441.140625
[R_Leg03]
27 1686.963989 0.000954 0.001431 0.047176 -0.021356 123.188049 1686.963989
28 1686.963989 0.000954 0.001431 0.047163 -0.021386 123.261131 1686.963989
[R_Foot]
27 3041.560059 -30.531288 -11.204481 -0.746387 -24.357460 36.297802 3041.734131
28 3041.560059 -30.531288 -11.204481 -0.195550 -24.419647 36.363728 3041.734131
[planeAlignerRight]
27 -0.635147 -812.270569 -0.364304 0.000000 -89.960434 -90.005180 812.270874
28 -0.635147 -812.270569 -0.364304 0.000000 -89.960434 -90.005180 812.270874
[R_Toe1_01]
27 -188.383347 -224.864899 21.052242 78.327164 0.810639 -176.062744 294.101532
28 -188.383347 -224.864899 21.052242 78.327164 0.810639 -176.062744 294.101532
[R_Toe2_01]
27 200.637817 -220.002121 -148.787384 -85.243942 46.454605 -40.773235 332.857574
28 200.637817 -220.002121 -148.787384 -85.243942 46.454605 -40.773235 332.857574
[R_Toe3_01]
27 188.606735 -220.092957 191.126343 -77.777176 -16.659966 -55.221592 347.192566
28 188.606735 -220.092957 191.126343 -77.777176 -16.659966 -55.221592 347.192566
[planeLockWeightRight]
27 -0.000477 0.000000 0.000000 -0.011823 -0.004379 -0.000027 0.000477
28 -0.000477 0.000000 0.000000 -0.011823 -0.004379 -0.000027 0.000477
[R_Toe1_02]
27 413.762085 0.000477 -0.000119 0.001534 -9.818216 0.001534 413.762085
28 413.762085 0.000477 -0.000119 0.001534 -9.818024 0.001534 413.762085
[R_Toe1_03]
27 464.317810 0.000000 0.001088 0.001388 9.995294 -0.003176 464.317810
28 464.317810 0.000000 0.001088 0.001388 9.995104 -0.003176 464.317810
[R_Toe2_02]
27 342.234741 -0.000954 0.000238 -0.002332 -79.833939 -0.002332 342.234741
28 342.234741 -0.000954 0.000238 -0.002332 -79.833969 -0.002332 342.234741
[R_Toe2_03]
27 420.210846 0.000715 -0.000268 -179.995636 64.198975 -179.999222 420.210846
28 420.210846 0.000715 -0.000268 -179.995636 64.198975 -179.999222 420.210846
[R_Toe3_02]
27 329.270355 -0.000477 -0.000954 0.001175 -84.647743 0.001175 329.270355
28 329.270355 -0.000477 -0.000954 0.001175 -84.645729 0.001175 329.270355
[R_Toe3_03]
27 439.137939 0.000238 0.001431 -179.997650 45.533459 -179.990097 439.137939
28 439.137939 0.000238 0.001431 -179.997650 45.533470 -179.990097 439.137939
[Rear_Leg02]
27 1162.777710 -0.029802 0.005960 -0.613493 2.275521 -106.879601 1162.777710
28 1162.777710 -0.029802 0.005960 -0.244190 1.184801 -106.661362 1162.777710
[Rear_Leg03]
27 607.192505 -0.013351 -0.073195 0.010569 -0.004945 66.508148 607.192505
28 607.192505 -0.013351 -0.073195 0.010605 -0.004867 65.664474 607.192505
[Rear_Leg04]
27 995.874512 -0.020504 -0.011921 -0.043652 -0.017788 62.722038 995.874573
28 995.874512 -0.020504 -0.011921 -0.043375 -0.018454 60.969425 995.874573
[Rear_Foot]
27 3096.176270 -0.067472 -0.041425 126.512573 87.540428 -45.825859 3096.176270
28 3096.176270 -0.067472 -0.041425 151.470108 87.936829 -19.907936 3096.176270
[planeAlignerCenter]
27 0.350077 0.966311 -838.790894 0.000009 0.000003 -179.999985 838.791565
28 0.350077 0.966311 -838.790894 0.000009 0.000003 -179.999985 838.791565
[Rear_Toe1_01]
27 0.653352 83.966492 -371.173737 0.290642 22.832069 90.579391 380.553192
28 0.653352 83.966492 -371.173737 0.312003 25.783459 90.553261 380.553192
[Rear_Toe2_01]
27 178.200760 -294.826019 -362.060547 -8.793559 20.711178 -67.269035 499.765686
28 178.200760 -294.826019 -362.060547 -8.592963 22.868126 -67.121765 499.765686
[Rear_Toe3_01]
27 -153.359680 -308.780914 -362.060852 4.048820 20.200300 -112.181549 499.952881
28 -153.359680 -308.780914 -362.060852 3.961041 22.320227 -112.228455 499.952881
[planeLockWeightCenter]
27 -0.000062 0.000238 0.000000 -0.011814 -0.004373 -0.000015 0.000246
28 -0.000062 0.000238 0.000000 -0.011814 -0.004373 -0.000015 0.000246
[Rear_Toe1_02]
27 379.707825 0.194073 0.000477 -0.002640 -33.263294 -0.002640 379.707855
28 379.707825 0.194073 0.000477 -0.000653 -33.425957 -0.000653 379.707855
[Rear_Toe1_03]
27 500.129700 0.165701 0.000119 -0.009250 84.010414 -0.012751 500.129761
28 500.129700 0.165701 0.000119 0.014017 80.393951 0.014017 500.129761
[Rear_Toe2_02]
27 340.494507 0.000238 -0.000954 0.001188 -71.961342 0.001188 340.494507
28 340.494507 0.000238 -0.000954 0.001188 -72.138680 0.001188 340.494507
[Rear_Toe2_03]
27 433.103577 0.000000 0.000238 0.008004 73.137192 0.008004 433.103546
28 433.103577 0.000000 0.000238 0.008143 73.426872 0.008143 433.103546
[Rear_Toe3_02]
27 340.494141 -0.000358 -0.000477 0.001194 -68.670433 0.001194 340.494171
28 340.494141 -0.000358 -0.000477 0.001194 -69.006172 0.001194 340.494171
[Rear_Toe3_03]
27 433.103577 0.001431 -0.000238 0.006162 68.040771 0.006162 433.103546
28 433.103577 0.001431 -0.000238 0.006303 68.536766 0.006303 433.103546
[Back_Bone]
27 1312.175781 -701.934692 0.000954 -0.236764 4.188603 -85.894249 1488.125488
28 1312.175781 -701.934692 0.000954 -0.015303 3.844566 -86.467155 1488.125488
[Head]
27 1406.159424 809.709290 0.001431 -0.593153 -0.101091 19.709116 1622.625488
28 1406.159424 809.709290 0.001431 -0.621721 0.140380 18.920218 1622.625488
[Motor_Bone]
27 1158.364380 -417.834747 0.000477 -0.000105 0.000046 -105.985291 1231.419434
28 1158.364380 -417.834747 0.000477 -0.000105 0.000046 -105.985291 1231.419434
[Ping_Mechanism]
27 1223.604980 -433.088989 -37.794254 0.000103 -0.000053 82.120995 1298.539063
28 1227.896118 -435.756836 -32.337044 0.000103 -0.000053 82.120995 1303.325928
[BN_LookIK]
27 193.241119 1380.371704 -0.002861 0.000000 89.965736 -31.038179 1393.832153
28 193.241119 1380.371704 -0.002861 0.000000 89.965736 -31.038179 1393.832153
[bottomMouth]
27 -435.092926 615.759399 -0.000954 -0.000022 0.000016 73.527184 753.966492
28 -435.092926 615.759399 -0.000954 -0.000022 0.000016 73.527184 753.966492
[L_Mouth01]
27 554.440979 7.658243 838.222046 150.204178 23.759130 109.605339 1005.027161
28 554.440979 7.658243 838.222046 150.204178 23.759130 109.605339 1005.027161
[L_mouthFront]
27 551.629089 934.514771 339.150421 0.000081 2.804060 79.119301 1136.941284
28 551.629089 934.514771 339.150421 0.000081 2.804060 79.119301 1136.941284
[mouthGun]
27 55.332661 1627.420898 0.000000 0.000023 0.000009 -11.038128 1628.361328
28 55.332661 1627.420898 0.000000 0.000023 0.000009 -11.038128 1628.361328
[R_Mouth01]
27 554.442383 7.659197 -838.223938 29.795891 -23.759109 109.605331 1005.029541
28 554.442383 7.659197 -838.223938 29.795891 -23.759109 109.605331 1005.029541
[R_mouthFront]
27 551.629089 934.514282 -339.151367 0.000029 -2.803930 79.119133 1136.941162
28 551.629089 934.514282 -339.151367 0.000029 -2.803930 79.119133 1136.941162
[TopMouth]
27 461.269867 -56.106091 -0.008583 -0.000059 -0.000268 92.025169 464.669525
28 461.269867 -56.106091 -0.008583 -0.000059 -0.000268 92.025169 464.669525
[weapon_bone]
27 -987.239868 1448.372803 0.001431 0.000000 89.965736 -31.038221 1752.833740
28 -987.239868 1448.372803 0.001431 0.000000 89.965736 -31.038221 1752.833740
